# xmcd CD database file
#
# Track frame offsets:
#	150
#	12107
#	25042
#	37765
#	48692
#	60325
#	70995
#	83652
#	95585
#	105654
#
# Disc length: 1626 seconds
#
# Revision: 1
# Processed by: cddbd v1.5.2PL0 Copyright (c) Steve Scherf et al.
# Submitted via: CDex 1.51
#
DISCID=7006580a
DTITLE=Bob Wills and the Texas Playboys - Roly Poly
DYEAR=2008
DGENRE=Country
TTITLE0=Roly Poly
TTITLE1=Faded Love
TTITLE2=Ida Red
TTITLE3=I'm Gonna Be Boss
TTITLE4=C Jam Blues
TTITLE5=Take Me Back To Tulsa
TTITLE6=All Night Long
TTITLE7=Cotton Eyed Joe
TTITLE8=Honeysuckle
TTITLE9=Oh Monah
EXTD=YEAR: 2008
EXTT0=
EXTT1=
EXTT2=
EXTT3=
EXTT4=
EXTT5=
EXTT6=
EXTT7=
EXTT8=
EXTT9=
PLAYORDER=
